<?xml version="1.0" encoding="utf-8"?>
<!-- Generator: Adobe Illustrator 16.0.0, SVG Export Plug-In . SVG Version: 6.00 Build 0)  -->
<!DOCTYPE svg PUBLIC "-//W3C//DTD SVG 1.1//EN" "http://www.w3.org/Graphics/SVG/1.1/DTD/svg11.dtd">
<svg version="1.1" id="圖層_1" xmlns="http://www.w3.org/2000/svg" xmlns:xlink="http://www.w3.org/1999/xlink" x="0px" y="0px"
	 width="760.63px" height="560px" viewBox="0 0 760.63 560" enable-background="new 0 0 760.63 560" xml:space="preserve">
<g>
	<path fill="#FFFFFF" d="M320.689,271.528c1.183,1.689,1.444,3.741,0.636,4.991l2.52,1.629c1.478-2.283,1.196-5.636-0.698-8.341
		L320.689,271.528z"/>
	<path fill="#FFFFFF" d="M328.857,273.729c1.083,1.083,1.614,2.821,1.354,4.43c-0.133,0.82-0.608,2.324-2.297,3.168l1.342,2.684
		c2.138-1.068,3.528-2.977,3.917-5.371c0.416-2.568-0.425-5.263-2.194-7.031L328.857,273.729z"/>
	<path fill="#FFFFFF" d="M287.361,274.727l1.113-2.785c-0.873-0.35-1.837-0.699-2.832-1.061c-2.668-0.967-5.691-2.063-7.491-3.413
		l-1.801,2.4c2.158,1.618,5.405,2.795,8.27,3.833C285.583,274.051,286.515,274.389,287.361,274.727z"/>
	<path fill="#FFFFFF" d="M390.363,495.935c-0.725-1.765-3.628-0.993-2.893,0.797c0.816,1.988,1.338,4.103,1.928,6.164
		c0.343,1.198,0.597,3.336,1.762,4.065c1.459,0.914,2.804-1.025,1.946-2.189c-0.008-0.021-0.013-0.037-0.024-0.068
		c-0.096-0.26-0.174-0.525-0.257-0.789c-0.275-0.878-0.52-1.766-0.772-2.65C391.542,499.477,391.07,497.656,390.363,495.935z"/>
	<path fill="#FFFFFF" d="M393.185,507.554c-1.885,0.436-1.086,3.328,0.797,2.893c5.298-1.225,3.143-8.761,1.715-12.179
		c-0.734-1.758-3.638-0.987-2.893,0.797C393.484,500.692,395.937,506.918,393.185,507.554z"/>
	<path fill="#FFFFFF" d="M171.626,89.204c0.286,0.458,0.531,0.949,0.731,1.445c0.397,0.983,0.985,2.521,0.761,3.492
		c-0.436,1.883,2.456,2.682,2.893,0.798c0.512-2.211-0.493-4.736-1.468-6.683c-0.811-1.618-3.307-3.938-4.605-1.305
		C169.302,88.24,170.581,89.412,171.626,89.204z"/>
	<path fill="#FFFFFF" d="M168.417,95.082c0.233,1.894,3.236,1.917,3,0c-0.468-3.801-2.589-6.98-4.688-10.085
		c-1.077-1.593-3.677-0.094-2.591,1.514C165.876,89.083,168.026,91.914,168.417,95.082z"/>
	<path fill="#FFFFFF" d="M191.933,82.43c-0.623,1.838,2.276,2.62,2.893,0.798c0.745-2.199,0.34-4.333-0.074-6.552
		c-0.355-1.9-3.246-1.093-2.893,0.798C192.177,79.177,192.504,80.743,191.933,82.43z"/>
	<path fill="#FFFFFF" d="M292.531,238.715c-0.487-1.01-0.94-2.036-1.392-3.063c-0.465-1.061-0.912-2.128-1.345-3.201
		c-0.162-0.403-0.317-0.809-0.469-1.215c-0.05-0.134-0.309-1.095-0.246-0.577c-0.229-1.896-3.231-1.918-3,0
		c0.235,1.943,1.349,3.897,2.108,5.674c0.844,1.972,1.6,4.388,2.998,6.054c1.245,1.484,3.355-0.649,2.121-2.121
		C293.347,240.313,292.719,239.104,292.531,238.715z"/>
	<path fill="#FFFFFF" d="M389.314,266.547c-2.689-0.81-5.397-0.72-8.397-0.721c-2-0.001-2,2.999,0,3c0,0.001,5.166-0.119,7.6,0.613
		C390.374,269.998,391.162,267.103,389.314,266.547z"/>
	<path fill="#FFFFFF" d="M386.645,285.213c-4.553-0.698-9.167-0.778-13.731-1.387c-1.913-0.255-1.889,2.748,0,3
		c4.297,0.572,8.649,0.622,12.935,1.279C387.74,288.396,388.553,285.506,386.645,285.213z"/>
	<path fill="#FFFFFF" d="M329.003,335.364c-2.012-1.479-3.156-3.901-4.129-6.128c-0.772-1.77-3.356-0.24-2.59,1.514
		c1.215,2.782,2.721,5.38,5.205,7.204C329.051,339.102,330.545,336.496,329.003,335.364z"/>
	<path fill="#FFFFFF" d="M352.133,323.725c0.36,1.899,3.251,1.093,2.893-0.797c-0.545-2.874-0.666-5.816-1.333-8.667
		c-0.44-1.884-3.333-1.085-2.893,0.797C351.467,317.907,351.588,320.852,352.133,323.725z"/>
	<path fill="#FFFFFF" d="M148.156,105.955c1.183,0.612,2.166,1.42,3.03,2.432c0.531,0.623,1.578,0.544,2.121,0
		c0.612-0.612,0.53-1.5,0-2.121c-1.011-1.185-2.253-2.186-3.637-2.902C147.954,102.477,146.437,105.066,148.156,105.955z"/>
	<path fill="#FFFFFF" d="M315.685,252.926c-0.566-1.844-3.463-1.057-2.893,0.797c0.828,2.694,2.152,5.212,2.666,8
		c0.35,1.901,3.241,1.094,2.893-0.797C317.837,258.137,316.513,255.62,315.685,252.926z"/>
	<path fill="#FFFFFF" d="M341.303,276.104c2.941-1.149,6.661-2.645,9.87-2c1.889,0.38,2.693-2.512,0.797-2.893
		c-3.833-0.771-7.927,0.617-11.464,2C338.725,273.907,339.5,276.809,341.303,276.104z"/>
	<path fill="#FFFFFF" d="M328.2,289.233c-0.875-1.726-3.463-0.207-2.59,1.514c1.484,2.928,3.183,5.739,4.667,8.667
		c0.874,1.727,3.462,0.207,2.59-1.514C331.383,294.973,329.684,292.16,328.2,289.233z"/>
	<path fill="#FFFFFF" d="M383.487,316.787c1.074-0.629,1.717-2.327,0.896-3.42c-2.146-2.86-4.329-5.854-7.563-7.563
		c-2.849-1.505-5.376,2.811-2.523,4.316c2.456,1.298,4.135,3.591,5.771,5.77C380.882,316.979,382.209,317.536,383.487,316.787z"/>
	<path fill="#FFFFFF" d="M348.635,229.294c1.2-4.505,3.729-9.072,8.254-10.92c2.943-1.202,1.657-6.041-1.328-4.822
		c-6.242,2.55-10.044,8.021-11.746,14.412C342.983,231.084,347.807,232.406,348.635,229.294z"/>
	<path fill="#FFFFFF" d="M357.326,227.063c2.223-2.222,4.444-4.444,6.667-6.667c2.282-2.281-1.254-5.817-3.535-3.535
		c-2.223,2.223-4.445,4.444-6.667,6.667C351.508,225.81,355.044,229.346,357.326,227.063z"/>
	<path fill="#FFFFFF" d="M594.756,124.901L595.25,125c-4.334-2.333-11.334,2.667-11.667,7c-1,10,17,9.667,16.333-0.667
		C599.624,128.402,597.525,125.73,594.756,124.901z"/>
	<path fill="#FFFFFF" d="M666.581,131.589c-2.84-1.069-5.545-0.955-8.263-0.421c2.347-4.141,4.933-8.142,7.866-11.9
		c1.059-1.355,0.933-3.747-1.104-4.178c-1.881-0.398-3.675-0.354-5.447-0.091c2.709-2.473,6.319-4.308,9.045-6.34
		c1.896-1.413,1.417-4.64-1.262-4.659c-1.685-0.012-3.44-0.095-5.227-0.182c-1.6-0.23-3.284-0.196-4.332-0.232
		c-6.046-0.212-12.572,1.042-18.543-0.032c-0.785-0.141-1.491,0.315-1.774,0.936c-0.021-0.018-0.043-0.032-0.063-0.05
		c-1.452-1.264-3.583,0.849-2.121,2.121c0.792,0.689,1.629,1.25,2.498,1.714c0.19,0.833,1.35,1.381,2.262,0.958
		c0.959,0.317,1.945,0.553,2.957,0.702c0.697,0.497,1.622,0.686,2.595,0.229c3.757,0.136,7.705-0.466,11.449-0.857
		c-3.479,2.958-6.973,5.887-8.646,10.296c-0.42,1.105,0.823,2.12,1.845,1.845c0.645-0.173,1.289-0.328,1.935-0.481
		c0.297,0.566,0.977,0.922,1.732,0.815c0.313-0.044,0.623-0.104,0.935-0.154c-2.584,3.155-4.92,6.494-5.733,10.381
		c-0.187,0.245-0.376,0.488-0.562,0.735c-0.472,0.626-0.229,1.34,0.27,1.801c-0.014,0.478-0.012,0.96,0.025,1.456
		c0.021,0.276,0.124,0.551,0.277,0.795c-0.076,0.268-0.163,0.531-0.224,0.806c-0.249,1.13,0.699,2.118,1.845,1.845
		c1.951-0.464,3.896-0.817,5.854-1.064c-2.899,2.414-5.58,5.104-9.009,6.822c-1.435,0.719-0.618,2.698,0.757,2.795
		c0.689,0.049,1.367,0.07,2.033,0.069c0.067,0.066,0.119,0.135,0.199,0.199c7.229,5.712,14.776-7.868,17.426-13.006
		C668.864,133.734,668.135,132.174,666.581,131.589z"/>
	<path fill="#FFFFFF" d="M652.583,95.5c-0.839,0.098-1.31,0.74-1.409,1.406c-1.258,1.513-0.694,4.334,1.742,4.094
		c15.376-1.519,31.259-2.67,46.52,0.331c-5.129,4.908-8.321,10.826-10.922,17.833c-1.759,4.736-5.014,13.919-10.143,18.469
		c-2.656,1.163-5.563,1.782-8.556,2.421c-0.665-0.092-1.243,0.055-1.698,0.369c-0.196,0.043-0.392,0.086-0.588,0.131
		c-1.344,0.306-1.323,1.857-0.522,2.571c0.141,0.813,0.681,1.536,1.745,1.785c7.448,1.748,13.282-3.48,17.451-9.3
		c2.354-2.598,4.119-5.62,5.643-8.843c3.563-7.536,5.746-16.209,11.364-22.209c0.935-0.841,1.913-1.648,2.968-2.399
		c0.277-0.198,0.49-0.449,0.672-0.717c0.782-0.531,1.598-1.036,2.491-1.479c1.027-0.509,0.925-2.054-0.001-2.591
		c-7.146-4.145-17.015-4.278-25.07-4.411C673.672,92.787,663.084,94.271,652.583,95.5z"/>
	<path fill="#FFFFFF" d="M758.502,88.754c-19.089-13.712-44.098-15.051-66.706-17.022c-9.979-0.871-19.917-2.14-29.944-2.334
		c-7.595-0.147-15.864,0.278-23.143,3.007c-0.014-0.01-0.022-0.022-0.036-0.032c-1.424-1.054-2.408-4.358-3.205-5.894
		c-0.901-1.737-1.794-3.766-3.157-5.205c-1.047-1.105-2.133-2.165-3.239-3.199c-1.44-1.972-3.146-3.659-5.226-4.891
		c-0.072-0.072-0.148-0.14-0.222-0.212c-0.563-0.96-1.192-1.872-1.886-2.733c4.429-2.882,6.74-7.728,7.542-14.357
		c0.616-5.087-0.012-10.283,0.128-15.392c0.146-5.31,2.505-9.458,6.004-13.334c2.575-2.853,0.894-7.682-3.182-7.682
		c-6.265,0-12.251-0.21-18.432,0.854c-6.195,1.067-12.28,2.822-18.278,4.674c-16.002,4.941-31.628,11.297-46.741,18.495
		c-13.689,6.52-27.569,13.912-38.955,24.061c-6.035,5.379-12.904,14.325-9.254,22.493c-17.015,7.731-35.811,7.698-54.07,10.353
		c-7.771,1.13-15.666,2.514-23.055,5.243c-2.986,1.103-6.406,2.683-8.637,5.105c-34.651-20.502-74.177-31.264-114.559-31.418
		c-31.816,0.113-63.104,6.831-91.86,19.681c0.079-2.792-0.127-5.486-0.588-8.084c1.458-15.898-15.572-29.119-27.466-36.899
		c-0.522-0.341-1.409-0.26-1.818,0.235c-0.885,1.071-1.693,2.202-2.467,3.356c-0.656,0.21-1.294,0.537-1.904,1.006
		c-4.574,3.519-6.659,11.742-6.506,17.751c-0.057,0.182-0.12,0.366-0.176,0.548c-0.181,0.586-0.014,1.064,0.315,1.388
		c0.012,0.102,0.019,0.21,0.033,0.31c0.443,3.182,5.26,1.823,4.821-1.329c-0.203-1.457,0.344-6.414,1.62-10.239
		c0.53-1.195,1.095-2.372,1.702-3.524c0.532-0.695,1.125-1.15,1.782-1.237c4.087-0.542,10.566,6.045,13.171,8.372
		c1.025,0.915,1.985,1.875,2.897,2.865c-3.444-2.206-7.2-4.038-10.84-5.846c-1.441-0.716-3.203,1.211-1.818,2.356
		c2.083,1.722,1.582,2.184-0.622,3.193c-1.711,0.784-3.518,1.341-5.077,2.425c-3.28,2.28-1.491,5.365,0.808,7.465
		c-2.748-0.903-5.403-1.245-8.036-2.864c-1.15-0.708-2.161-1.632-3.083-2.662c0.422-0.839,0.393-1.88-0.481-2.74
		c-2.907-2.861-5.824-5.551-7.93-8.995c-0.303-1.217-0.406-2.522-0.317-3.873c0.074-1.123-1.334-1.888-2.257-1.295
		c-2.942,1.891-5.528,4.744-7.665,8.079c-1.906,2.445-3.455,5.173-4.628,8.074c-3.193-2.689-6.85-4.759-10.375-7.047
		c-0.865-0.562-2.354-0.441-3.029,0.391c-5.034,6.207-11.954,18.897-8.643,27.099c0.762,1.888,3.013,2.035,4.222,1.116
		c-0.535,0.825-1.103,1.628-1.682,2.425c-6.505-4.209-12.621-8.971-20.131-11.283c-1.286-0.396-2.743,0.457-3.075,1.746
		c-0.594,2.305-0.886,4.649-0.955,7.006c-1.482,12.412,0.844,25.295,8.169,35.63c7.278,10.271,18.83,14.489,30.852,13.304
		c0.521,0.224,1.035,0.466,1.545,0.721c-21.411,22.291-38.167,48.946-48.99,77.991c-12.912-0.955-25.486,3.652-37.394,13.661
		c-0.407,0.198-0.817,0.387-1.221,0.594c-0.754,0.387-1.125,0.954-1.233,1.556c-24.707,22.518-41.429,65.02-42.819,92.036
		c-2.61,56.812,26.568,98.597,78.77,114.241c1.97,0.849,3.965,1.652,5.989,2.397c13.943,5.13,29.162,7.134,43.982,5.803
		c35.207,37.732,82.337,62.512,133.538,69.655c41.807,5.834,84.665-0.495,122.982-17.654c-0.341,0.645-0.302,1.526,0.463,2.056
		c8.734,6.058,17.471,16.707,20.213,27.106c0.738,2.798,0.292,5.166-0.791,7.277c-0.455,0.28-0.785,0.794-0.797,1.347
		c-0.161,0.242-0.326,0.481-0.502,0.717c-0.424-0.49-0.848-0.989-1.266-1.51c-1.292-1.609-3.592-0.458-4.178,1.103
		c-2.189,5.821-4.465,11.525-8.898,15.624c-0.438-2.521-0.748-5.074-1.127-7.605c-0.022-0.451-0.052-0.901-0.064-1.354
		c-0.012-0.418-0.141-0.805-0.348-1.145c-0.678-3.771-1.675-7.444-3.714-10.811c-3.596-5.938-14.025-10.83-9.81-18.955
		c0.89-1.714-1.699-3.231-2.59-1.514c-3.646,7.026,0.748,12.259,5.627,17.22c2.892,2.94,4.895,5.842,6.222,9.432
		c-0.765-0.02-1.494,0.453-1.394,1.433c0.286,2.797-0.156,5.432-1.078,7.916c-1.99,3.554-4.335,6.811-7.167,9.763
		c-0.286-0.667-0.604-1.32-0.931-1.976c-0.273-2.574-0.689-5.14-1.063-7.726c1.072-1.754,1.724-3.673,1.927-6.131
		c0.373-4.522-1.22-9.505-2.951-13.599c-2.104-4.975-5.562-8.877-7.937-13.665c-0.859-1.733-3.446-0.213-2.59,1.514
		c1.94,3.913,4.857,7.136,6.789,11.057c2.234,4.538,3.704,9.62,3.688,14.693c-0.005,1.7-0.494,3.081-1.24,4.302
		c-0.343,0.228-0.61,0.578-0.704,1.016c-1.574,2.041-3.784,3.703-5.392,5.858c-1.794,2.405-2.635,5.108-3.483,7.847
		c-0.76-1.074-1.601-2.025-2.535-2.813c-0.562-0.904-1.18-1.766-1.889-2.553c-3.045-3.382-6.55-4.633-10.446-6.75
		c-5.23-2.843-5.462-10.605-5.478-15.819c-0.015-4.908,1.459-10.526,6.075-12.967c1.711-0.904,0.195-3.493-1.514-2.59
		c-7.601,4.019-8.395,14.479-7.169,22.063c0.751,4.647,2.172,8.605,5.905,11.425c-0.893,0.32-1.533,1.57-0.707,2.534
		c1.909,2.227,2.337,3.335-0.615,4.128c-1.812,0.487-3.688,0.673-5.441,1.369c-1.314,0.522-2.021,1.275-2.302,2.137
		c-4.654-3.6-9.105-7.448-12.023-12.669c-4.691-8.395-0.712-19.495,6.866-24.73c1.58-1.091,0.083-3.692-1.514-2.59
		c-7.546,5.212-11.552,14.512-9.911,23.523c0.774,4.255,3.023,7.882,5.918,11.08c-2.442,0.842-3.665,2.656-3.804,5.006
		c-0.034,0.031-0.069,0.061-0.104,0.092c-3.467-2.998-6.855-6.235-9.424-9.987c-2.881-9.042-1.654-18.913,5.838-25.076
		c1.385-0.775,2.838-1.324,4.303-1.57c0.959-0.161,1.229-0.974,1.02-1.701c2.674-1.404,0.185-5.516-2.674-4.229
		c-7.959,3.58-12.417,9.752-14.093,16.772c-0.774,2.099-1.208,4.258-1.196,6.343c0.009,1.507,0.248,2.973,0.664,4.397
		c0.999,8.268,5.017,16.534,11.119,22.413c1.232,1.188,2.996,0.814,3.926-0.506c0.511-0.726,1.12-1.327,1.771-1.879
		c0.002,0.001,0.003,0.003,0.005,0.004c1.037,0.868,3.075,0.084,2.507-1.459c-0.047-0.128-0.097-0.262-0.146-0.396
		c0.338-0.269,0.672-0.543,0.989-0.838c3.527,2.846,7.469,3.753,11.698,3.071c0.086,0.064,0.176,0.132,0.261,0.196
		c0.881,0.668,1.728,0.104,2.036-0.713c0.895-0.257,1.8-0.571,2.716-0.956c3.098-1.303,6.023-3.042,9.293-3.894
		c4.627-1.205,6.903,3.738,8.302,7.267c0.768,1.939,3.369,2.6,4.568,0.597c2.098-3.5,4.131-7.003,5.947-10.629
		c0.688,1.389,1.255,2.815,1.395,4.367c0.007,0.077,0.022,0.149,0.035,0.224c-0.016,0.257-0.02,0.512-0.041,0.77
		c-0.092,1.075,1.048,1.655,1.95,1.399c0.746,0.179,1.592,0.008,2.323-0.625c3.75-3.246,6.838-6.925,9.405-10.996
		c0.155,1.738,0.287,3.479,0.327,5.229c0.044,1.921,2.082,3.08,3.762,2.158c0.045-0.025,0.087-0.053,0.133-0.078
		c0.572,0.9,1.971,1.059,2.567,0.01c0.579-1.016,1.146-2.036,1.715-3.055c3.51-3.125,5.917-7.087,7.886-11.389
		c0.687-0.67,1.389-1.324,2.095-1.977c1.753,2.003,3.281,4.078,3.933,6.995c0.354,1.589,2.329,2.278,3.672,1.493
		c6.073-3.546,12.319-8.185,14.09-15.369c0.849-3.445,0.193-6.905-1.145-10.115c-0.033-1.403-0.171-2.828-0.434-4.267
		c-0.961-5.264-3.889-9.707-7.727-13.3c-4.503-4.215-12.385-8.28-14.273-14.513c-0.111-0.368-0.318-0.628-0.57-0.799
		c-0.002-0.047-0.01-0.094-0.011-0.141c0.25-0.213,0.507-0.417,0.689-0.643c0.398-0.493,0.682-1.156,0.719-1.811
		c3.398-1.863,6.757-3.806,10.06-5.849c42.047-26.004,74.529-66.114,91.917-112.265c0.347,0.3,0.813,0.468,1.321,0.357
		c11.795-2.546,22.227-7.159,31.162-15.386c0.217-0.2,0.344-0.419,0.411-0.642c7.002-5.148,13.73-10.773,20.751-15.855
		c19.44-14.071,36.343-30.063,51.71-48.472c14.131-16.927,27.14-35.537,33.388-56.922c2.275-7.786,5.42-15.328,7.87-23.063
		c1.639-5.173,3.471-10.869,3.8-16.484c1.068-3.058,2.423-5.874,4.395-8.17c2.548-1.988,5.314-3.692,8.372-5.157
		c0.027-0.013,0.044-0.032,0.07-0.046c9.212-3.937,17.565-10.111,24.992-16.759c5.698-3.425,10.976-7.396,15.407-12.642
		c7.131-8.439,12.868-17.997,19.399-26.889c5.261-7.161,12.978-17.898,22.688-18.821C760.795,96.706,762.233,91.434,758.502,88.754z
		 M354.51,544.967c-0.104,0.032-0.205,0.067-0.309,0.101c-0.074-1.417-0.911-2.965-1.832-4.216c2.059,1.052,4.276,1.73,6.153,3.209
		c0.115,0.091,0.214,0.198,0.325,0.292C357.526,544.292,356.085,544.479,354.51,544.967z M518.867,52.446
		c1.063-1.16,2.177-2.272,3.311-3.363c10.632-7.977,22.961-14.035,34.921-19.592c13.755-6.391,27.976-11.9,42.484-16.323
		c5.458-1.664,10.991-3.148,16.609-4.162c2.372-0.428,4.92-0.564,7.522-0.594c-2.358,4.638-3.387,9.64-3.332,15.504
		c0.037,4.02,0.759,9.562-0.331,13.838c-0.202,0.314-0.416,0.609-0.639,0.894c-3.171,0.917-6.689,0.842-9.895,1.407
		c-0.589,0.104-0.916,0.452-1.034,0.874c-4.823-2.021-10.089-3.351-15.144-4.191c-6.965-1.684-14.246-2.176-21.223-1.1
		c-13.071,0.893-27.363,5.064-32.342,16.782c-0.507,0.466-0.998,0.95-1.451,1.473c-0.018-0.005-0.033-0.013-0.05-0.019
		c-4.863-4.953-14.72,0.141-19.423,2.798c-1.09,0.616-2.29,1.347-3.518,2.179c-1.182,0.588-2.357,1.241-3.494,1.954
		C513.852,57.673,516.701,54.808,518.867,52.446z M419.15,100.42c0.026-0.014,0.057-0.021,0.083-0.036
		c1.392-0.004,3.449-1.4,3.818-1.547c0.482-0.192,0.813-0.552,0.972-0.961c11.938-4.447,24.214-6.722,36.986-7.488
		c5.642-0.338,11.28-0.715,16.88-1.498c0.879-0.123,1.859-0.251,2.871-0.422c-8.264,5.871-15.891,12.51-23.229,19.621
		c-2.687,2.603-5.305,5.275-7.861,8.003c-0.623,0.521-1.25,1.041-1.872,1.563c-7.887,6.627-14.23,13.555-20.093,22.047
		c-1.095,1.585-2.775,3.923-4.34,6.542c-0.601,0.124-1.072,0.611-1.241,1.158c-1.909,0.199-3.792,0.491-5.657,0.855
		c-0.688,0.091-1.371,0.197-2.048,0.33c1.591-2.224,3.472-4.26,5.265-6.321c1.684-1.935,0.061-4.66-2.432-4.178
		c-0.656,0.127-1.312,0.233-1.963,0.337c0.26-0.571,0.523-1.14,0.792-1.707c1.657-1.927,3.349-3.828,4.797-5.92
		c0.439-0.635,0.206-1.384-0.298-1.845c0.045-0.065,0.086-0.132,0.131-0.197c0.531-0.77,0.013-2.016-0.896-2.203
		c-2.818-0.581-5.596-0.427-8.403-0.244c0.071-0.086,0.137-0.175,0.207-0.261c1.914-2.25,3.658-4.631,5.093-7.292
		c0.346-0.642,0.203-1.251-0.162-1.673c0.317-0.696,0.238-1.662-0.542-2.044c-3.558-1.738-7.292-1.961-11.105-1.936
		c3.406-3.113,7.229-5.832,9.798-9.655C416.142,102.351,417.625,101.34,419.15,100.42z M549.149,213.815
		c0.421-0.636,0.251-1.398-0.225-1.872c-0.021-0.114-0.037-0.228-0.062-0.342c-0.208-0.979-1.396-1.336-2.203-0.896
		c-1.709,0.928-3.393,2.264-4.045,4.01c-3.641,3.089-6.945,8.293-11.525,9.945c-0.088-0.262-0.174-0.538-0.263-0.825
		c-0.211-0.684-0.639-1.177-1.162-1.473c-0.313-1.136-1.486-1.56-2.49-0.774c-3.75,2.932-6.23,6.699-8.27,10.851
		c-0.16-0.286-0.324-0.571-0.492-0.854c-2.646-11.165-6.141-22.127-10.464-32.814c11.794-0.409,23.552-1.715,35.335-2.982
		c4.899-0.526,9.814-1.091,14.719-1.756c5.303-0.616,10.571-1.465,15.806-2.564c-0.328,3.523-0.243,7.056-0.435,10.604
		c-0.059,1.1-0.217,2.138-0.451,3.13c-1.877,4.813-5.254,9.194-9.396,12.915c-5.244,4.208-11.621,7.34-18.149,9.365
		c0.868-2.19,1.758-4.369,2.474-6.611C548.787,218.631,549.279,216.254,549.149,213.815z M518.264,272.572
		c-3.23,0.802-6.459,1.582-9.676,2.395c-0.127-0.014-0.254-0.027-0.381-0.04c-1.126-27.093-7.432-52.868-17.987-76.345
		c3.741,0.23,7.476,0.33,11.205,0.316C511.247,222.314,516.893,247.189,518.264,272.572z M425.284,238.029
		c-1.051-1.183-2.895-0.58-3.708,0.739c-3.921,1.012-7.511,2.728-10.452,5.426c-0.134,0.123-0.243,0.251-0.341,0.382
		c-0.847,0.584-1.554,1.371-2.103,2.268c-1.539-1.145-3.053-2.352-4.563-3.576c0.195-0.78,0.52-1.565,0.908-2.318
		c0.738-0.022,1.48-0.33,2.023-1.059c5.36-7.187,17.55-7.803,25.647-8.256c1.947-0.108,3.897-0.159,5.849-0.18
		c0.668,0.277,1.442,0.308,2.13-0.012c7.181,0.035,14.364,0.613,21.466,1.54c10.032,1.31,17.755,0.561,26.404-4.569
		c1.707-1.012,5.59-3.551,7.43-6.229c1.019,3.235,1.954,6.508,2.814,9.81c-3.875,3.297-7.879,6.437-11.726,9.768
		c-1.813,0.981-3.675,1.884-5.595,2.604c-8.289,3.109-19.809-2.129-27.959-3.982C445.377,238.536,434.704,236.643,425.284,238.029z
		 M440.065,245.873c-0.287,0.302-0.57,0.605-0.849,0.914c-0.048-0.075-0.103-0.147-0.163-0.215c0.142-0.171,0.282-0.342,0.424-0.512
		c0.063-0.076,0.113-0.154,0.16-0.233C439.78,245.844,439.921,245.858,440.065,245.873z M410.97,268.643
		c-5.567,3.729-9.768,8.167-13.904,13.425c-2.696,3.427-5.447,7.313-8.714,10.505c-1.907-1.619-4.582,0.872-3.684,3.071
		c-1.334,0.922-2.752,1.707-4.286,2.284c-6.817,2.563-15.67,1.425-21.563-2.789c-1.527-1.093-3.002-0.082-3.465,1.318
		c-0.604-0.283-1.234-0.284-1.803-0.103c-1.188-0.749-2.473-1.354-3.854-1.785l-0.219,0.698c-0.526-1.229-1.142-2.449-1.847-3.572
		c2.727,1.016,5.483,1.065,8.134,0.408c1.483-0.202,2.992-0.63,4.513-1.312c9.108-4.081,16.702-15.758,17.82-23.684l0.509-3.611
		l-2.902,2.207c-0.327,0.249-0.663,0.466-1.006,0.661c-0.166-1.395-1.557-2.475-3.139-2.146c-3.118,0.646-6.41,0.266-9.746-0.499
		c3.47-1.872,7.05-3.436,11.099-3.561c1.93-0.06,1.936-3.06,0-3c-5.647,0.174-10.468,2.716-15.271,5.453
		c-9.978-2.913-19.866-6.926-26.243,4.756c-1.545,2.831,2.772,5.354,4.318,2.523c4.262-7.808,11.441-5.618,18.543-3.389
		c0.608,0.19,1.217,0.382,1.825,0.57c3.829,1.468,7.711,2.912,11.41,3.367c-4.467,9.127-9.934,20.002-21.343,14.698
		c-1.818-0.846-3.303,0.236-3.603,1.646c-2.036-0.868-4.323-0.646-6.76,1.41c-2.468,2.081,1.088,5.6,3.535,3.535
		c2.706-2.282,5.741,5.972,6.298,7.539c1.293,3.636,1.394,7.53-0.35,11.031c-2.777,5.576-9.524,8.971-14.647,12.806
		c-1.063-1.108-2.282-2.114-3.342-3.105c-3.329-3.111-6.653-6.222-9.78-9.54c-2.684-2.848-5.507-6.02-7.09-9.66
		c0.361-0.19,0.711-0.395,1.041-0.622c2.162-1.49,3.442-3.648,3.87-6.413c0.078-0.018,0.151-0.04,0.229-0.058
		c3.028-0.672,1.902-5.142-0.981-4.864c-0.021-0.02-0.047-0.034-0.069-0.053c1.348-0.007,2.672-0.595,3.807-1.729l-2.121-2.121
		c-0.813,0.812-1.607,1.04-2.433,0.699c-1.491-0.616-2.707-2.799-2.711-4.865c-0.001-1.321,0.479-3.097,2.781-4.056l-1.154-2.77
		c-2.944,1.228-4.631,3.717-4.627,6.829c0.001,0.384,0.033,0.768,0.085,1.148c-0.406-0.578-1.168-0.945-1.983-0.564
		c0.38-0.178-0.039,0.01-0.103,0.032c-0.218,0.077-0.441,0.141-0.663,0.205c-0.485,0.142-0.976,0.265-1.466,0.389
		c-0.99,0.25-1.986,0.48-2.973,0.748c-0.837,0.228-1.766,0.487-2.057,1.416c-0.431,1.376,0.925,1.992,2.018,2.005
		c0.574,0.007,0.974-0.256,1.207-0.624c0.637-0.17,1.278-0.324,1.919-0.482c1.222-0.301,2.485-0.563,3.631-1.099
		c0.409-0.19,0.634-0.479,0.725-0.798c0.62,2.207,2.048,4.126,3.818,5.041c-0.392,0.103-0.767,0.309-1.081,0.667
		c-4.573,5.213-12.392,4.688-18.682,4.034c-0.295-0.03-0.586-0.075-0.88-0.111c-3.117-1.114-6.254-2.18-9.137-2.517
		c2.269-1.382,4.385-3.097,6.461-5.065c4.535-4.301,8.532-8.475,14.163-10.062c0.457,0.239,0.928,0.504,1.415,0.804l0.79-1.283
		c0.942-0.139,1.928-0.21,2.971-0.199c1.761,0.019,2.553-1.462,2.391-2.817c1.003-1.07,1.191-2.927-0.463-3.841
		c-6.731-3.721-13.149-8.667-12.897-17.039c0.176-5.825,3.588-11.501,7.149-16.442c0.451-0.415,0.91-0.831,1.385-1.248
		c3.875,4.336,9.339,7.32,14.085,10.475c2.92,1.94,6.04,4.051,7.92,7.083c2.467,3.977-1.94,7.881-4.671,10.229
		c-2.449,2.105,1.104,5.626,3.535,3.535c0.283-0.243,0.551-0.491,0.818-0.74l0.634,0.905c4.403-3.082,6.533-6.225,6.513-9.607
		c-0.013-2.1-0.88-4.057-2.278-5.918c-0.388-0.917-0.901-1.835-1.589-2.75c0.963-0.968,1.8-2.044,2.535-3.199
		c0.012-0.009,0.023-0.015,0.034-0.023c5.712-4.75,8.337-11.385,8.609-18.292c1.421-0.699,2.244-2.577,0.724-3.911
		c-3.046-2.672,3.656-10.757,5.458-12.558c3.692-3.691,10.065-2.645,14.737-2.127c6.529,0.723,12.076,0.303,16.401-2.826
		c-2.143,10.048-6.968,18.597-12.875,27.32c-10.522,1.713-20.828,6.667-28.591,12.858c-2.221,1.771,0.305,4.473,2.432,4.179
		c0.985-0.137,1.966-0.298,2.945-0.459l1.133,1.157c0.595-0.582,1.21-1.138,1.837-1.681c8.094-1.505,16.085-3.562,24.289-4.501
		c0.118-0.014,0.239-0.026,0.359-0.04c6.937,0.373,13.574,1.4,20.178,5.271c2.762,1.619,5.683,2.884,8.652,4.039
		c0.277,0.188,0.571,0.296,0.87,0.336c3.52,1.343,7.088,2.567,10.529,4.056c1.559,0.934,3.162,1.727,4.824,2.333
		c0.143,0.064,0.283,0.115,0.422,0.151c2.146,0.734,4.393,1.14,6.772,1.085C419.903,263.323,414.848,266.046,410.97,268.643z
		 M411.313,274.648c-0.471,0.474-0.94,0.948-1.409,1.419c-3.05,3.067-6.198,6.236-9.038,9.368
		C404.087,281.524,407.328,277.863,411.313,274.648z M375.561,316.885c0.498-0.11-0.343-0.251-0.574-0.369
		c-0.874-0.445-1.677-1.039-2.464-1.621c-1.619-1.196-3.103-2.618-4.53-4.033c-1.14-1.13-2.586-0.822-3.471,0.051
		c-0.448-2.781-1.51-5.534-3.308-8.223c3.955,1.671,9.041,2.408,13.77,2.408c4.306,0,8.309-0.606,10.869-1.66
		c1.13-0.465,2.194-1.03,3.209-1.671c2.329,3.604,4.321,7.474,6.184,11.242c2.246,4.544,5.911,11.295,6.089,17.013
		c-5.893-1.768-11.698-3.375-17.916-1.97c-2.777,0.627-5.115,2.433-7.853,3.164c-5.752,1.536-10.439-4.981-10.175-9.92
		c0.058-1.081-0.471-1.789-1.2-2.144c0.339-1.488,0.536-2.979,0.578-4.468c1.779,1.738,3.655,3.362,5.656,4.843
		c1.839,1.358,4.1,2.706,6.464,2.18C380.037,321.005,378.702,316.185,375.561,316.885z M347.578,392.627
		c0.084,0.431,0.159,0.863,0.241,1.295l5.543,60.971c-0.53,4.054-1.119,8.1-1.534,12.17c-0.233,2.295-0.344,4.598-0.407,6.903
		c-0.017,0.624,0.433,5.861,0.619,6.787c-0.474,0.396-0.766,0.954-0.758,1.655c-1.775,0.457-3.564,0.882-5.357,1.291
		c0.784-0.7,1.158-1.824,0.459-2.999c-0.203-0.341-0.37-0.718-0.521-1.111c0.637-5.062,1.587-12.992,1.928-17.788
		c0.064-0.08,0.119-0.161,0.188-0.24c0.533-0.617,0.599-1.656-0.064-2.193c0.002-0.126,0.005-0.254,0.005-0.367
		c0.362-6.874,0.431-13.771,0.237-20.665c0.772-4.493,0.17-9.838,0.57-13.707c0.104-0.998-0.617-1.873-1.503-2.271
		c-0.281-3.184-0.631-6.361-1.023-9.534c0.545-0.693,0.618-1.469,0.396-2.156c0.068-0.217,0.12-0.447,0.131-0.706
		c0.519-12.559-2.244-25.537-8.289-36.607c-1.59-5.857-3.372-11.648-5.317-17.369c1.729-1.254,3.525-2.602,5.358-4.052
		c0.002,0.009,0.002,0.018,0.004,0.026c3.169,12.311,5.926,24.71,8.402,37.167C345.834,390.353,346.434,391.886,347.578,392.627z
		 M340.777,484.807c-13.104,2.637-26.656,4.026-40.526,4.026c-55.044,0-105.077-21.808-141.961-57.214
		c1.307-0.456,2.607-0.939,3.89-1.481c3.269-1.381,6.517-2.807,9.822-4.097c0.253-0.099,0.62-0.25,1.054-0.424
		c1.838-0.497,3.655-1.002,5.442-1.515c0.472-0.003,0.867,0.075,1.137,0.271c1.164,0.842,2.298,0.213,2.976-0.648
		c1.759,0.329,3.531,0.592,5.307,0.775c3.061,0.316,3.163-4.221,0.404-4.918c0.005-1.287-0.819-2.644-2.404-2.832
		c-4.458-0.531-9.065-1.364-13.455-2.724c-9.7-5.747-16.383-13.045-19.893-21.792c-0.012-0.03-0.021-0.062-0.033-0.092
		c4.963,1.348,10.12,2.37,15.309,2.837c3.066,2.232,6.047,4.56,9.117,6.786c1.931,1.4,4.104,3.371,6.595,3.371
		c1.216,0,1.979-0.792,2.411-1.839c1.479-3.59,3.187-7.08,4.667-10.669c0.042-0.101,0.059-0.195,0.087-0.292
		c0.046-0.018,0.093-0.03,0.14-0.048c8.275-3.137,15.03-9.264,20.888-15.854c4.313,1.739,8.597,3.51,13.143,4.604
		c1.564,0.376,3.178-0.744,3.165-2.411c-0.047-6.451-0.619-12.883-0.666-19.334c-0.005-0.685-0.242-1.215-0.602-1.609
		c3.139-3.936,6.388-7.776,9.996-11.316c3.24-3.178,6.828-5.904,10.77-8.09c2.445,2.756,5.737,6.457,9.472,5.465
		c1.678-0.445,2.81-2.03,3.726-3.383c1.543-2.276,2.82-4.749,4.193-7.143c1.811-0.159,3.389-0.065,3.787,0.672
		c0.439,0.814,1.108,1.179,1.803,1.227c0.202,0.572,0.702,0.842,1.234,0.855c0.361,0.727,0.703,1.455,1.012,2.181
		c0.459,3.759,0.35,7.527-1.926,10.286c-0.701,0.851-0.4,2.012,0.431,2.41c0.553,1.304,2.091,2.224,3.533,1.271
		c7.173-4.735,14.867-2.351,22.803-1.85c3.396,0.214,6.353-0.437,8.896-1.792c3.297-1.064,6.037-3.075,7.249-6.1
		c0.37,0.39,0.74,0.779,1.107,1.171c3.834,4.091,8.463,8.713,9.605,14.411c0.265,1.323,1.849,2.103,3.105,1.737
		c-0.253,0.314-0.509,0.628-0.771,0.937c-0.593,0.647-1.177,1.302-1.75,1.966c-1.955,2.115-4.014,4.144-5.885,6.33
		c-0.581,0.679-0.627,1.908,0.304,2.355c0.28,0.135,0.564,0.258,0.847,0.387c0.285,0.339,0.684,0.597,1.229,0.698
		c0.245,0.046,0.488,0.102,0.732,0.152c3.586,1.475,7.295,2.633,10.922,4.011l3.972,35.574c-2.388,2.779-4.216,6.031-6.24,9.126
		c-0.348,0.532-0.236,1.416,0.254,1.86c-0.492,1.248,0.323,3.079,1.694,3.277c1.982,0.285,3.964,0.457,5.947,0.567l1.676,15.011
		c-0.544,0.564-1.191,1.133-1.977,1.743c-2.079,1.615-3.977,4.187-4.357,6.813c-0.908,1.323-1.765,2.683-2.57,4.061
		c-0.387,0.66-0.2,1.7,0.538,2.052c2.149,1.023,4.371,1.839,6.62,2.581c0.117,0.307,0.223,0.636,0.304,1.019
		c0.634,3,0.705,6.161,0.905,9.212c0.213,3.223,0.007,7.354,0.898,10.814c-0.296,0.953-0.598,1.905-0.909,2.855
		C339.695,483.942,340.148,484.556,340.777,484.807z M145.009,249.39c-0.062-0.133-0.122-0.269-0.184-0.401
		c-3.25-6.946-7.242-15.025-12.55-21.577c-0.541-0.772-1.104-1.528-1.681-2.271c-2.154-3.233-4.487-6.328-7.049-9.039
		c-0.096-0.272-0.265-0.529-0.543-0.736c-0.184-0.137-0.378-0.261-0.565-0.395c-2.387-2.359-4.961-4.379-7.764-5.852l-0.589,1.12
		c-1.531-0.695-3.085-1.336-4.646-1.933c14.224-35.891,38.295-66.842,68.857-89.513c0.281,0.395,0.697,0.72,1.265,0.912
		c1.954,0.66,3.861,1.431,5.744,2.258c-0.233,0.247-0.389,0.589-0.389,1.037c0,0,0,11.659,0,17.659c0,0.939,1.209,1.753,2.145,1.446
		c4.821-1.582,9.181-4.421,13.788-6.562l26.067,24.252v14.833c0,2.515,3.45,3.377,4.729,1.262c1.383-2.285,3.379-5.205,5.978-6.133
		l11.057,10.287c-0.272,4.632-0.287,9.272-0.288,13.918c0,1.773,2.171,3.279,3.762,2.158c2.724-1.918,5.639-3.998,8.837-4.623
		l11.158,10.382c1.904,3.257,3.662,6.593,5.243,10.012c0.017,0.035,0.038,0.06,0.055,0.094c-4.067,4.895-7.979,9.646-10.417,14.158
		c-0.047-0.003-0.09-0.013-0.14-0.013c-8.872,0.007-17.134,0.215-24.5,5.661c-6.818,5.04-11.435,11.352-20.834,9.095
		c-2.687-0.645-4.514,3.216-1.927,4.57c9.814,5.139,18.047,14.078,28.418,16.759c-7.602,3.763-15.187,7.3-23.821,8.672
		c-1.946,0.31-2.284,2.946-1.103,4.179c1.724,1.799,3.658,3.266,5.68,4.601c2.756,2.491,5.808,4.25,8.784,5.95
		c1.145,0.653,2.253,1.296,3.326,1.96c2.938,2.458,5.227,5.509,7.521,8.562c0.413,1.032,0.78,2.095,1.15,3.181
		c1.048,3.075,2.132,6.255,4.566,9.037c1.677,1.806,3.683,3.196,5.924,4.17c-6.683-0.098-12.545,1.645-17.774,4.612
		c-3.22-1.75-6.299-3.706-8.976-6.275c-1.133-1.089-3.139-0.937-3.926,0.506c-2.838,5.194-5.219,11.993-3.586,17.927
		c0.188,0.681,0.572,1.138,1.04,1.421c-2.126,2.542-4.145,5.219-6.081,7.943c-3.176-1.736-6.453-3.241-9.883-4.44
		c-1.247-0.436-2.787,0.483-3.076,1.746c-1.429,6.248-1.609,13.098,0,19.33c0.128,0.496,0.365,0.868,0.658,1.149
		c-2.044,2.695-4.188,5.273-6.543,7.66c-0.131-0.108-0.275-0.21-0.442-0.301c-4.859-2.646-10.172-4.143-15.264-6.252
		c-1.551-0.642-3.142,0.944-3.165,2.411c-0.085,5.597-1.153,11.107-1.311,16.697c-4.004,1.266-8.153,2.023-12.339,2.258
		c-0.064-0.479-0.293-0.959-0.75-1.39c-4.311-4.065-4.658-10.691-5.268-16.232c-0.241-2.19-2.525-3.279-4.268-1.768
		c-3.175,2.752-6.168,5.665-8.853,8.854c0.384-2.258,0.807-4.462,1.214-6.577c0.262-1.361,0.548-2.742,0.848-4.137
		c1.176-4.159,2.718-8.476,4.648-12.952C173.168,307.782,161.663,277.044,145.009,249.39z M192.297,112.12
		c4.504,1.954,7.746,5.489,11.208,8.853c1.938,1.883,4.075,3.562,6.274,5.161l67.525,65.461c2.708,3.346,5.569,6.544,8.869,9.315
		c-1.577,2.267-3.373,4.559-5.238,6.849c-10.261-21.314-27-39.354-44.942-54.461c-16.36-13.776-32.772-30.199-53.206-37.742
		c2.693-1.888,5.433-3.714,8.219-5.474C190.93,110.886,191.285,111.681,192.297,112.12z M278.348,185.184l1.387,1.277
		c-0.001,0.171-0.005,0.342-0.006,0.513C279.262,186.383,278.809,185.78,278.348,185.184z M315.819,199.381
		c4.695,2.121,9.129,4.156,12.361,8.192c2.674,4.577,4.434,9.667,4.953,14.828c0,0.208,0.002,0.421,0,0.624
		c-0.034,3.679-0.439,8.119-1.686,12.132c-0.115,0.082-0.222,0.172-0.342,0.249l0.174,0.271c-0.895,2.692-2.183,5.166-4.025,7.042
		c-3.254-2.682-7.163-4.761-10.785-7.111c2.564-4.417,3.188-9.566,3.891-14.551c0.268-1.891-2.623-2.706-2.893-0.797
		c-0.654,4.63-1.169,9.499-3.482,13.64c-1.518-1.117-2.929-2.333-4.163-3.713c-0.211-0.391-0.358-0.773-0.434-1.147l-0.483-2.417
		l-1.099,0.879c-0.028-0.046-0.062-0.088-0.089-0.134c-0.327-0.546-0.768-0.872-1.245-1.048c-0.843-2.084-1.258-4.378-0.779-6.596
		c0.407-1.886-2.484-2.688-2.893-0.797c-0.606,2.807-0.188,5.59,0.808,8.218c-0.069,0.075-0.146,0.14-0.209,0.223
		c-2.812,3.705-5.7,7.728-7.834,12.041c-1.727,2.217-3.23,4.569-4.27,6.972c-0.479-0.251-1.061-0.344-1.734-0.162
		c-6.227,1.68-13.384-2.567-17.034-7.434c-4.93-6.572,1.733-13.667,6.146-18.324c4.647-4.905,9.105-9.345,11.997-15.555
		c1.918-4.121,2.963-8.592,3.51-13.125c0.412-1.454,0.653-2.896,0.688-4.318c2.097,1.24,4.297,2.277,6.551,3.204
		c1.917,1.697,3.988,3.304,6.403,4.627C310.422,196.943,313.166,198.183,315.819,199.381z M314.038,195.25
		c3.724,1.377,7.354,2.924,10.676,5.056c-0.027,0.067-0.049,0.139-0.07,0.21c-2.43-1.536-5.031-2.713-7.589-3.868
		C316.055,196.196,315.044,195.731,314.038,195.25z M270.105,292.785l-0.418,0.11l3.56,1.78c2.209,1.104,7.072,3.183,12.745,4.917
		c-0.017,0.009-0.033,0.017-0.05,0.024c-0.525,0.245-1.052,0.503-1.576,0.776c-4.102,2.014-8.299,3.947-12.83,4.529
		c-7.647,0.983-13.867-4.733-18.169-10.342c-3.318-4.326-6.336-8.819-10.81-12.083c-3.178-2.317-6.672-4.119-9.947-6.231
		c1.127-0.474,2.255-0.941,3.366-1.399c5.002-2.06,10.174-4.189,14.713-6.913c2.171-1.303,4.276-2.949,6.32-4.573
		c0.086-0.043,0.171-0.087,0.257-0.13c0.486-0.244,0.976-0.479,1.464-0.716c0.275-0.053,0.548-0.099,0.826-0.161
		c0.643-0.146,1.089-0.467,1.381-0.873c4.073-1.844,8.248-3.384,12.618-4.46c2.814-0.693,5.642-0.671,8.475-0.543
		c1.671,0.395,3.382,0.785,5.034,0.991l0.098-0.78c1.065,0.014,2.131-0.014,3.196-0.104c0.758,2.423,2.283,4.619,4.6,6.549
		c0.946,0.789,1.971,1.397,3.021,1.919c1.744,1.782,3.751,3.358,5.839,4.743c-1.329,0.229-2.604,0.578-3.84,1.021
		c-7.71-1.561-12.021,4.909-15.91,10.751c-0.606,0.911-1.219,1.827-1.845,2.721c-2.847,2.272-5.993,4.037-9.998,4.489
		C270.232,289.022,269.168,291.391,270.105,292.785z M303.217,330.613c2.006,2.608,4.203,5.063,6.462,7.463
		c-4.033,7.38-9.73,7.63-17.592,6.626c-4.562-0.583-8.941-0.8-13.128,0.214c0.318-2.498-0.228-5.15-1.416-7.891
		c-0.889-2.052-1.909-4.041-2.818-6.077c-0.881-5.304-1.417-10.578,1.486-15.191c0.428-0.68,0.19-1.399-0.309-1.837
		c0.241-0.442,0.483-0.86,0.727-1.285c4.453-1.612,8.35-4.413,10.805-7.895c0.806-0.438,1.604-0.886,2.387-1.354
		c0.354-0.122,0.707-0.24,1.068-0.345c0.977-0.282,1.51-0.957,1.689-1.72c1.584,0.341,3.177,0.621,4.744,0.821
		c-1.445,0.499-2.302,2.151-2.761,4.302l-0.738-0.239C290.002,317.988,295.815,324.817,303.217,330.613z M264.899,237.348
		c-2.253-0.181-4.464-0.587-6.676-1.13c-3.132-0.768-4.46,4.054-1.33,4.822c3.279,0.805,6.615,1.376,9.998,1.423
		c0.407,0.006,0.759-0.074,1.062-0.21c0.804,0.773,1.749,1.504,2.84,2.191c4.817,5.125,12.431,8.147,19.114,6.809
		c-0.02,0.15-0.035,0.3-0.05,0.449c-5.238,0.629-10.544-0.64-15.837,0.109c-0.937,0.133-1.87,0.327-2.801,0.546
		c-0.313,0.053-0.628,0.098-0.939,0.174c-2.107,0.358-4.066,1.091-5.924,2.049c-2.376,0.948-4.702,2.014-6.941,3.056
		c-0.084,0.039-0.168,0.08-0.252,0.119c-10.708,1.825-19.142-5.662-27.617-11.85c3.82-0.863,7.275-2.925,10.769-5.887
		c3.054-2.59,5.939-5.169,9.549-6.98c4.382-2.199,10.121-1.999,15.12-1.927C264.412,233.262,264.331,235.345,264.899,237.348z
		 M212.849,340.343c-0.185,0.177-0.323,0.423-0.379,0.759c-0.027,0.163-0.055,0.327-0.081,0.49c-0.183,0.055-0.354,0.141-0.498,0.27
		c0.065-0.616,0.14-1.231,0.234-1.84C212.37,340.122,212.606,340.239,212.849,340.343z M193.419,365.913
		c-0.423-0.364-1.042-0.49-1.57-0.288c0.106-0.165,0.208-0.332,0.313-0.497c0.407,0.154,0.811,0.313,1.216,0.471
		c0.006,0.077,0.003,0.151,0.018,0.232C193.401,365.859,193.413,365.885,193.419,365.913z M186.144,380.372
		c6.675-2.471,12.414-6.219,17.441-10.838c3.663-3.18,6.974-6.787,10.067-10.483c4.626-5.528,8.696-11.5,13.082-17.215
		c4.944-6.443,10.885-15.034,19.08-17.39c0.364-0.104,0.621-0.303,0.792-0.545c6.954-2.141,14.504-3.797,21.355-1.673
		c-0.187,1.924-0.101,3.891,0.361,5.901c-1.273-0.155-2.648-0.022-4.04,0.196c-0.779-0.265-1.66-0.182-2.348,0.416
		c-0.731,0.135-1.453,0.264-2.154,0.358c-5.535,0.745-10.683,2.538-15.55,5.265c-10.087,5.652-17.501,15.191-24.456,24.169
		c-3.092,3.991-6.165,8.088-9.453,11.984c-0.256-0.1-0.51-0.202-0.767-0.301c-2.509-0.963-3.814,2.216-2.473,3.973
		c-3.262,3.531-6.779,6.799-10.76,9.536c-13.447,9.248-30.755,7.134-45.573,2.65c-0.365-1.568-0.649-3.173-0.842-4.821
		C161.824,385.18,174.432,384.708,186.144,380.372z M182.47,398.9c-0.098,0.222-0.199,0.442-0.296,0.664
		c-0.516-0.323-1.081-0.751-1.633-1.19c0.052-0.026,0.098-0.063,0.147-0.096C181.077,398.864,181.815,399.168,182.47,398.9z
		 M328.112,352.767c0.123-0.053,0.246-0.114,0.365-0.206c0.617-0.48,1.263-0.955,1.901-1.431l0.021,0.188
		c-0.743,0.56-1.479,1.137-2.193,1.754c-0.004-0.008-0.007-0.015-0.01-0.022C328.17,352.952,328.137,352.862,328.112,352.767z
		 M336.196,347.48c-1.673,0.991-3.332,2.039-4.942,3.196l-0.059-0.161c3.122-2.292,6.441-4.554,9.708-6.909
		C339.334,344.961,337.754,346.254,336.196,347.48z M330.148,347.633c-0.079-0.21-0.151-0.423-0.23-0.633l0.083,0.739
		c-0.984,0.703-1.946,1.408-2.877,2.117c-2.932-7.104-8.891-11.976-14.729-16.229c-0.199-0.211-0.4-0.423-0.595-0.633
		c-3.578-3.87-7.345-8.068-9.188-13.092c-1.816-4.95,0.512-8.952,4.151-12.022c1.526,5.179,6.045,9.043,11.393,13.611
		c1.105,0.943,2.257,1.927,3.42,2.952c0.563,0.512,1.078,0.988,1.554,1.428c3.052,2.819,4.889,4.225,6.805,4.224
		c2.086,0,4.289-1.688,8.232-5.013c0.309,2.518,1.313,4.854,1.967,7.31c0.497,1.868,3.392,1.074,2.893-0.797
		c-0.671-2.52-1.855-4.964-1.946-7.602c-0.013-0.384-0.146-0.688-0.344-0.92c4.573-3.562,11.345-9.633,12.01-17.615l0.005-0.124
		c0-2.384-0.9-4.854-2.208-7.189c-0.005-0.014-0.01-0.028-0.015-0.042c0.386,0.179,0.759,0.374,1.121,0.583
		c-0.02,0.585,0.209,1.19,0.809,1.712c4.029,3.504,6.174,7.229,6.907,11.036c-0.269,0.242-0.448,0.596-0.448,1.066
		C358.922,329.674,342.785,338.618,330.148,347.633z M373.883,271.128c0.027-0.394,0.034-0.78,0.007-1.154
		c0.156-0.05,0.314-0.09,0.47-0.146C374.217,270.255,374.057,270.688,373.883,271.128z M411.778,249.012
		c0.18-0.235,0.366-0.467,0.56-0.693c0.747,0.208,1.59,0.082,2.321-0.589c2.178-1.997,4.846-3.253,7.748-4.006
		c1.316,3.443,2.426,6.985,3.843,10.379C420.737,253.87,416.089,251.815,411.778,249.012z M491.226,220.26
		c-0.544,0.573-1.187,1.092-1.8,1.563c-1.362,1.05-2.847,1.942-4.323,2.818c-0.136,0.08-0.274,0.16-0.412,0.241
		c0.063-0.474-0.021-0.989-0.308-1.516c-1.363-2.498-3.538-4.669-4.416-7.403c-0.479-1.495-2.25-2.378-3.672-1.493
		c-5.156,3.206-8.1,8.719-10.996,13.891c-2.199-0.242-4.396-0.564-6.597-0.849c-3.247-4.682-5.975-9.614-8.319-14.813
		c-0.835-1.849-3.368-1.39-4.318,0c-2.961,4.331-4.886,9.241-7.618,13.7c-4.649-0.062-9.704,0.04-14.624,0.706
		c0.895-0.883,1.25-2.377,0.169-3.579c-3.101-3.448-6.891-8.491-12.063-6.104c-2.881,1.33-4.592,5.319-5.864,7.944
		c-1.735,3.582-4.209,5.671-3.584,9.927c0.098,0.664,0.391,1.12,0.779,1.414c-0.177,0.218-0.357,0.432-0.527,0.659
		c-0.181,0.242-0.291,0.482-0.368,0.719c-0.7,0.684-1.286,1.482-1.707,2.389c-4.165-3.317-8.466-6.434-13.449-8.25
		c-4.597-1.676-9.492-2.333-14.443-2.182c6.976-10.863,11.964-21.741,12.626-35.414c0.116-2.395-3.615-3.544-4.658-1.262
		c-3.104,6.786-7.501,8.711-14.668,8.147c-5.344-0.421-10.451-1.339-15.757-0.043c-3.39,0.827-7.933,4.875-10.789,9.527
		c-0.896-2.29-2.016-4.484-3.339-6.509c-8.434-12.902-24.751-13.296-37.158-20.218c-2.466-2.388-5.059-4.808-8.299-6.87
		l-1.916,2.274c0.491,0.54,0.914,1.091,1.278,1.651c-0.219,0.356-0.355,0.789-0.36,1.302c-0.046,4.626-0.449,9.21-1.504,13.578
		c-1.857-1.618-3.579-3.402-5.223-5.276c0.943-0.268,1.727-1.03,1.727-2.304c0.001-2.019,0-4.037,0.057-6.052
		c0.825-2.996,1.718-5.972,2.906-8.852c0.118-0.286,0.085-0.61-0.036-0.911c0.008-0.005,0.014-0.013,0.021-0.019
		c0.646-0.437,0.777-1.121,0.606-1.71c0.637-1.641-1.8-3.003-2.658-1.342c-0.021,0.042-0.045,0.081-0.066,0.123
		c-0.565-0.753-1.566-1.159-2.66-0.982c-4.749,0.768-9.289,2.476-13.044,5.455c-0.046-0.053-0.089-0.109-0.135-0.163
		c-3.93-4.565-8.178-8.838-12.475-13.065c0.271-0.487,0.339-1.1,0.062-1.815c-1.391-3.587,1.888-9.163,3.748-12.074
		c1.026-1.607-0.315-3.778-2.159-3.762c-5.657,0.052-11.181,0.821-16.526,2.711c-5.286-5.332-10.751-10.152-16.647-14.698
		c1.001-3.645,2.938-6.866,4.665-10.251c0.831-1.627-0.169-3.81-2.158-3.762c-5.272,0.128-10.171,1.926-15.331,2.756
		c-0.691,0.111-1.157,0.433-1.447,0.854c-1.919-1.477-3.78-3.024-5.526-4.721c-3.123-3.035-6.157-6.073-10.047-8.034
		c4.654-3.78,11.318-5.593,16.77-7.513c6.907-2.432,13.772-4.911,20.633-7.472c18.945-7.071,38.354-13.508,58.699-14.502
		c9.938-0.486,19.919,0.084,29.826,0.871c0.709,0.056,1.42,0.112,2.129,0.167c23.498,2.714,45.797,9.414,66.205,19.404
		c1.942,1.411,3.87,2.848,5.889,4.158c-5.584,2.711-11.052,5.653-16.355,8.839c-6.241,3.749-13.502,8.405-19.172,14.184
		c-0.15,0.008-0.309,0.035-0.479,0.103c-2.586,1.036-5.085,2.128-7.186,3.965c-0.25-0.079-0.525-0.084-0.814,0.035
		c-10.545,4.351-16.5,15.599-19.548,26.047c-0.401,1.376,1.071,2.2,2.203,1.694c0.517-0.231,1.107-0.537,1.745-0.868
		c0.263,0.013,0.524-0.024,0.755-0.132c2.547-1.185,5.077-1.303,7.685-1.11c-2.203,3.042-3.325,6.965-3.496,10.838
		c-0.677,2.561-0.882,5.288-0.392,8.375c0.196,1.24,1.733,1.276,2.507,0.662c2.491-1.98,5.629-4.763,8.939-5.061
		c0.275-0.025,0.508-0.113,0.704-0.238c0.242,1.51,0.708,2.937,1.319,4.312c0.228,3.297,1.575,6.453,3.682,9.183
		c0.818,1.062,2.239,0.923,2.741-0.358c2.44-6.231,7.423-10.016,13.216-12.544c0.8-0.234,1.63-0.444,2.493-0.63
		c4.989-1.078,10.154-1.696,14.834-3.839c0.364-0.167,0.724-0.348,1.085-0.522c8.674-1.589,18.462-2.625,25.843-7.622
		c0.042-0.026,0.081-0.054,0.118-0.083c0.355-0.244,0.713-0.487,1.057-0.75c0.012,0.101,0.011,0.205,0.025,0.305
		c-2.532,4.717-4.99,9.477-7.531,14.181c-1.159,1.513-2.324,3.022-3.495,4.527c-0.596,0.766-0.464,2.105,0.446,2.462
		c0.256,0.432,0.729,0.743,1.297,0.784c7.044,0.507,13.792,2.373,20.525,4.335c0.307,0.235,0.683,0.354,1.053,0.307
		c0.766,0.224,1.532,0.447,2.298,0.67c0.396,0.528,0.987,0.926,1.79,1.021c8.593,1.02,16.672,4.711,24.842,7.352
		c7.727,2.497,15.907,3.553,23.978,4.311c0.871,2.404,1.58,4.856,2.227,7.327c-0.013,0.244,0.029,0.503,0.159,0.768
		c0.031,0.063,0.063,0.13,0.095,0.194C488.411,211.098,489.487,215.779,491.226,220.26z M218.099,95.676
		c7.944-3.486,16.152-6.477,24.581-8.945c-4.012,1.415-7.995,2.883-11.946,4.357C226.533,92.657,222.318,94.171,218.099,95.676z
		 M396.917,119.5c3.901,0.007,7.435,0.154,10.855,1.449c-2.912,2.534-5.357,5.487-7.514,8.789c-1.297,1.984,0.823,4.058,2.822,3.672
		c3.152-0.608,6.319-0.805,9.502-0.873c-1.366,2.683-2.516,5.473-3.824,8.2c-0.415,0.864-0.285,1.959,0.216,2.756
		c0.044,1.013,1.003,1.916,2.06,1.374c-0.288,0.383-0.567,0.772-0.841,1.165c-0.131,0.132-0.238,0.288-0.313,0.464
		c-0.804,1.191-1.541,2.431-2.171,3.752c-0.161,0.159-0.326,0.313-0.491,0.469c-2.349,0.787-4.677,1.67-6.986,2.659
		c-8.092,3.464-16.025,7.937-24.716,9.694c-1.208-0.048-2.411-0.17-3.605-0.381c-6.216-1.096-13.152-7.027-15.231-13.475
		c-0.911-8.944,4.749-17.055,11.18-22.871c4.601-3.755,9.661-6.876,13.436-9.214c0.315-0.196,0.638-0.383,0.954-0.577
		c4.236-2.308,8.594-4.404,12.762-6.474c2.683-1.332,5.389-2.615,8.105-3.876c0.101,0.059,0.2,0.119,0.301,0.177
		c-0.307,0.324-0.614,0.646-0.927,0.965c-2.997,2.388-5.705,5.114-7.731,8.391C393.751,117.366,395.058,119.497,396.917,119.5z
		 M467.277,188.762c-0.834-0.097-1.67-0.182-2.503-0.283c-2.484-0.303-4.966-0.642-7.441-1.02
		c-6.973-2.388-13.815-5.014-21.196-5.926c3.637-8.218,2.441-21.4-7.688-23.234c-0.829-0.639-1.721-1.209-2.688-1.679
		c0.11-0.107,0.217-0.225,0.314-0.358c1.407-1.919,1.211-3.235,0.272-4.099c1.79-3.125,3.646-6.211,5.621-9.227
		c2.121-3.238,4.382-6.378,6.74-9.445c2.029-2.329,4.146-4.513,6.361-6.625c0.255,0.083,0.53,0.139,0.847,0.134
		C472.17,126.622,485.562,172.02,467.277,188.762z M178.289,57.454c1.68-0.892,3.524-1.423,5.192-2.346
		c1.387-0.768,2.031-1.734,2.151-2.752c5.534,2.794,10.976,5.931,14.738,10.956c1.812,3.952,2.879,8.204,3.092,12.644
		c-0.263,2.124-0.86,4.215-1.737,6.175c-4.563,2.221-9.055,4.603-13.47,7.138c1.039-5.307-0.357-11.446-2.083-16.211
		c-1.5-4.142-3.918-7.217-7.744-9.049c1.01-0.321,1.688-1.57,0.652-2.398C177.15,60.066,175.63,58.866,178.289,57.454z
		 M160.144,57.435c0.326,0.32,0.653,0.64,0.98,0.962c0.446,0.438,0.938,0.655,1.424,0.709c0.886,1.028,1.842,1.984,2.912,2.798
		c3.485,2.651,7.014,3.321,11.128,4.52c5.724,1.667,7.301,8.718,8.469,13.736c0.863,3.708,0.925,8.02-0.771,11.442
		c-4.396,2.646-8.714,5.44-12.938,8.399c-0.985,0.689-1.958,1.393-2.931,2.099c-0.048-0.138-0.113-0.277-0.22-0.418
		c-2.637-3.485-6.107-6.111-8.73-9.599c-2.865-3.808-5.106-8.123-6.3-12.739c-1.518-5.871,2.897-9.634,5.308-14.396
		C159.633,62.662,159.908,60.041,160.144,57.435z M120.797,89.46c0.892,0.004,1.835-0.731,1.561-1.865
		c-0.079-0.325-0.175-0.631-0.281-0.927c0.228-0.407,0.473-0.811,0.727-1.213c0.546-0.381,0.95-0.989,1.104-1.66
		c0.467-0.668,0.954-1.333,1.447-1.995c3.09-4.15,4.759-8.965,6.362-13.809c3.199,7.405,4.444,15.704,9.976,21.898
		c4.691,5.252,15.833,7.99,13.124,16.882c-0.565,1.855,2.331,2.643,2.893,0.798c2.246-7.369-2.965-11.724-8.507-15.579
		c-4.8-3.338-7.865-6.738-10.104-12.276c-2.216-5.484-3.466-11.217-6.345-16.434c-0.663-1.2-2.339-0.816-2.742,0.358
		c-1.29,3.763-2.407,7.571-4.017,11.217c-0.356,0.806-0.764,1.579-1.205,2.331c0.059-0.365,0.027-0.771-0.155-1.221
		c-2.347-5.815,2.316-15.281,6.176-20.669c3.293,2.063,6.592,4.059,9.366,6.8c-0.9,3.683-1.28,7.491-1.12,11.2
		c0.139,3.211,5.139,3.225,5,0c-0.367-8.509,2.339-18.253,8.788-24.206c1.296,2.01,2.845,3.801,4.495,5.525
		c-0.708,4.446-0.988,8.598-3.769,12.679c-2.503,3.675-4.407,6.898-3.55,11.491c0.845,4.532,2.816,8.572,5.241,12.463
		c2.87,4.603,7.115,7.681,10.344,11.947c0.184,0.243,0.406,0.401,0.642,0.502c-6.998,5.21-13.669,10.825-19.983,16.805
		c-0.017-0.008-0.029-0.019-0.046-0.027c-9.577-4.299-19.558-12.648-24.672-21.939C119.744,95.259,119.802,92.28,120.797,89.46z
		 M103.784,101.709c1.328,2.921,2.789,5.735,4.28,8.377c0.683,1.21,1.471,2.36,2.323,3.462
		C107.576,110.126,105.367,106.091,103.784,101.709z M114.755,111.021c-4.258-4.857-6.852-11.951-8.911-17.954
		c-1.474-4.295-2.572-8.891-2.647-13.467c0.014-0.007,0.028-0.015,0.042-0.021c1.428,0.935,3.005,1.675,4.743,2.311
		c3.285,1.203,8.382,1.598,10.585,4.59c-1.86,3.821-1.971,7.896-0.304,12.073c4.061,10.179,15.895,19.562,25.694,24.159
		c-0.521,0.507-1.031,1.024-1.546,1.536C133.145,118.991,122.216,119.533,114.755,111.021z M178.096,102.791
		c6.49-4.423,13.204-8.459,20.102-12.11c0.483,0.2,1.057,0.155,1.537-0.332c0.278-0.282,0.542-0.582,0.807-0.881
		c35.969-18.469,76.803-26.498,117.303-23.436c19.207,1.452,38.149,5.715,56.28,12.166c9.335,3.321,18.385,7.395,27.172,11.963
		c3.716,1.932,7.354,4.013,10.95,6.158c-3.943,1.552-7.85,3.217-11.709,4.986c-2.928-1.617-5.898-3.166-8.91-4.644
		c-3.119-2.269-6.28-4.468-9.934-5.943c-4.272-1.725-8.756-2.694-13.061-4.287c-5.132-1.899-10.256-3.791-15.5-5.361
		c-9.102-2.725-18.725-3.304-28.158-4.105c-8.109-0.964-16.359-1.465-24.725-1.465c-87.822,0-163.11,54.671-193.636,131.764
		c-0.157-0.056-0.314-0.114-0.47-0.169c-2.648-0.929-6.109-2.093-9.43-2.346C112.895,163.481,141.393,127.808,178.096,102.791z
		 M86.745,423.082c-18.539-8.018-34.613-21.201-47.458-36.942c0.301-0.654,0.299-1.411-0.233-2.104
		c-1.163-1.514-2.249-3.071-3.305-4.646c-3.373-5.629-5.377-12.046-9.361-17.354c-0.313-0.418-0.721-0.714-1.161-0.902
		c-6.132-11.808-11.178-24.07-12.381-37.477c-1.461-16.283,3.329-33.388,9.177-48.413c8.557-21.988,24.324-46.32,46.466-56.531
		c6.457-1.932,13.084-3.319,19.716-4.693c0.221,0.128,0.469,0.209,0.728,0.213c1.073,0.01,2.146,0.035,3.218,0.076
		c0.567,0.018,1.017-0.318,1.285-0.777c0.134-0.072,0.26-0.152,0.372-0.246c2.689,0.261,5.361,0.714,8.042,1.242
		c5.65,2.13,11.07,5.08,16.452,7.596c0.195,0.091,0.401,0.146,0.61,0.183c3.186,1.741,5.977,4.188,8.462,7.037
		c2.571,4.005,4.896,8.205,7.023,12.052c0.691,1.249,1.364,2.467,2.023,3.638l0.072,0.12c0.34,0.532,0.67,1.061,1.005,1.591
		c2.728,5.664,5.191,11.45,8.042,17.058c0.626,1.232,1.204,2.482,1.757,3.741c0.299,0.831,0.589,1.666,0.871,2.503
		c-0.543,0.381-0.875,1.026-0.751,1.955c0.029,0.221,0.061,0.443,0.09,0.665c0,0,0,0-0.001,0c0,0.001,0.001,0.003,0.001,0.004
		c0.627,4.668,1.308,9.398,1.93,14.162c-0.004,0.058-0.021,0.109-0.021,0.169c0.056,12.007,1.063,23.975,1.626,35.96
		c-0.223,2.354-0.533,4.697-0.95,7.025c-1.59,8.875-4.006,17.532-5.627,26.308c-3.612-1.412-7.017-3.427-9.807-6.098
		c-1.29-1.235-2.948-0.699-3.777,0.402c-4.892-2.4-9.495-6.711-13.983-10.918c-4.353-4.08-8.854-8.3-13.692-10.842l-2.39-1.256
		l-1.069,2.479c-4.472,10.375,1.457,23.905,6.222,34.777c0.072,0.164,0.143,0.326,0.214,0.488
		c-5.096-2.307-10.087-5.031-14.957-7.688c-2.163-1.181-4.284-2.338-6.354-3.426l-3.07-1.613l-0.56,3.423
		c-0.839,5.133,0.397,9.837,1.93,14.712c-5.198-1.576-10.265-4.369-15.565-7.289c-1.689-0.931-3.378-1.861-5.074-2.752l-3.07-1.613
		l-0.56,3.423c-2.24,13.7,8.452,26.994,17.042,37.675c0.203,0.252,0.404,0.503,0.605,0.753c-4.251-1.527-8.679-3.018-13.677-3.834
		l-5.956-0.975l3.523,4.9c6.658,9.262,17.089,13.772,26.293,17.753c1.058,0.457,2.1,0.911,3.131,1.367
		c0.114,0.317,0.306,0.629,0.591,0.921c1.083,1.108,2.046,2.335,2.954,3.597c0.068,0.11,0.142,0.216,0.21,0.326
		C91.285,424.403,88.993,423.769,86.745,423.082z M100.695,426.586c-0.505-0.1-0.994-0.22-1.495-0.324
		c0.337-0.662,0.366-1.46-0.15-2.228c-0.765-1.138-1.555-2.28-2.395-3.385c-0.396-0.628-0.815-1.242-1.329-1.787
		c-0.158-0.168-0.325-0.299-0.494-0.409c-0.278-0.311-0.55-0.628-0.84-0.925c-0.159-0.162-0.325-0.289-0.494-0.396l0.32-0.701
		c-1.656-0.756-3.365-1.495-5.1-2.245c-6.531-2.824-13.222-5.718-18.64-10.183c2.194,0.694,4.323,1.465,6.418,2.225
		c2.106,0.763,4.284,1.552,6.453,2.232l7.156,2.244l-4.378-6.089c-1.708-2.375-3.737-4.899-5.886-7.571
		c-7.13-8.865-15.821-19.671-16.222-30.086c0.525,0.288,1.049,0.577,1.574,0.866c6.765,3.729,13.761,7.583,21.291,8.813l3.992,0.653
		l-1.202-3.862c-0.255-0.821-0.513-1.626-0.767-2.417c-1.21-3.777-2.3-7.176-2.502-10.522c0.933,0.505,1.875,1.02,2.826,1.538
		c6.783,3.702,13.797,7.53,21.167,10.299l5.29,1.988l-2.087-5.252c-0.768-1.931-1.683-4.02-2.652-6.23
		c-3.913-8.928-8.681-19.807-7.064-28c3.32,2.239,6.582,5.297,9.994,8.495c6.584,6.173,13.393,12.555,21.773,13.925l0.028-0.173
		c2.584,1.76,5.417,3.177,8.356,4.243c-0.7,4.918-1.06,9.893-0.79,14.983c0.176,3.327,0.629,6.619,1.346,9.84
		c0.391,6.101,1.814,12.058,5.05,17.402c2.968,4.901,7.185,8.461,12.021,11.087c3.265,2.509,6.878,4.506,10.703,6.039
		c-0.138,0.056-0.261,0.107-0.396,0.162C150.615,426.488,126.436,430.795,100.695,426.586z M417.117,505.612
		c3.917,4.386,8.097,9.217,9.358,15.116c0.046,0.215,0.064,0.424,0.096,0.635c-1.287,4.82-4.336,9.15-8.781,12.03
		c-0.176-2.694-1.117-5.052-2.816-7.263c1.344-2.884,1.629-6.085,0.959-9.526c-1.135-5.831-5.033-11.188-8.532-15.816
		c-3.781-5.002-7.886-9.495-13.06-13.083c-0.131-0.091-0.26-0.148-0.387-0.191c2.56-1.17,5.102-2.38,7.618-3.646
		c0.162,0.403,0.435,0.741,0.773,0.998C403.818,492.92,412.193,500.1,417.117,505.612z M503.126,364.351
		c-2.346,5.946-5.021,11.757-7.889,17.468c-5.187,10.334-11.284,20.197-18.025,29.586c-13.808,19.23-30.938,36.065-50.133,49.887
		c-39.541,28.471-88.055,42.458-136.638,40.493c-30.217-1.223-60.006-9.119-87.092-22.49c-13.177-6.506-25.642-14.46-37.242-23.472
		c-5.629-4.373-10.998-9.072-16.178-13.966c-2.258-2.133-4.445-4.34-6.607-6.571c3.97-0.645,7.893-1.479,11.731-2.618
		c37.531,36.583,88.771,59.166,145.196,59.166c18.243,0,35.943-2.364,52.815-6.794c0.464,0.128,0.971,0.125,1.448-0.008
		c0.937,0.101,1.766-0.35,2.298-1.013c63.224-17.876,114.317-64.943,137.737-125.657c-1.07-0.028-2.133-0.059-3.182-0.074
		c-23.135,59.049-72.885,104.845-134.41,122.566c0.748-2.223,1.063-5.23,1.172-8.395c0.033-0.002,0.062,0.005,0.096,0.002
		c4.467-0.341,8.197-2.615,11.757-5.177c2.12-1.526,6.343-3.577,6.354-6.715c0.012-2.784-2.671-5.761-4.774-7.292
		c-1.569-1.141-3.278-1.97-5.039-2.773c-1.327-0.605-3.596-1.135-4.53-2.311c-0.91-1.146-2.126-1.031-3.002-0.339
		c0.328-4.909,0.37-9.781,0.068-14.701c4.299-2.623,8.373-5.558,12.268-8.759c1.039-0.854,0.913-2.66,0-3.535
		c-3.64-3.487-8.036-6.16-11.334-10c-1.284-1.496-3.09-0.751-3.832,0.607c-1.12-6.787-2.338-13.564-3.665-20.321
		c3.344-1.792,7.907-2.403,9.635-5.76c0.071-0.033,0.144-0.064,0.214-0.099c0.859-0.411,0.882-1.418,0.438-2.112
		c0.003-0.031,0.012-0.058,0.015-0.089c0.62-6.201-7.192-7.085-10.805-10.226c-1.11-0.966-2.452-0.741-3.352-0.019
		c-1.282-5.713-2.646-11.401-4.061-17.073c-0.229-1.591-0.453-3.181-0.663-4.769l0.301,3.311c-0.308-1.227-0.6-2.458-0.915-3.682
		c-0.212-0.823-0.707-1.33-1.301-1.582c1.505-1.271,3.008-2.598,4.484-3.969c6.407-3.776,12.419-8.295,15.512-16.55
		c2.478,4.669,7.534,7.78,13.223,7.74c3.807-0.027,7.208-2.872,10.851-3.695c5.425-1.225,11.694,1.626,16.821,3.134
		c1.234,0.362,2.816-0.425,3.076-1.746c1.322-6.737-2.155-14.037-4.798-20.04c-2.274-5.165-4.924-10.439-8.132-15.24
		c2.416-2.217,4.572-4.79,6.687-7.322c1.087-1.301,2.113-2.53,3.156-3.686c2.845-3.15,5.907-6.23,9.149-9.49
		c4.203-4.228,8.489-8.552,12.307-13.07c1.801-1.654,3.392-3.496,4.59-5.644c0.359,0.594,0.732,1.182,1.137,1.755
		c1.15,1.629,3.157,1.565,4.318,0c3.651-4.925,7.017-10.039,11.608-14.161c1.011-0.907,0.963-2.051,0.398-2.918
		c4.688,0.819,9.298,2.022,13.921,3.141c0.025,0.215,0.072,0.438,0.17,0.675c2.34,5.708,3.679,11.778,7.976,16.437
		c1.156,1.254,3.056,0.769,3.927-0.506c3.451-5.053,8.271-9.379,11.332-14.667c0.117-0.201,0.194-0.4,0.253-0.597
		c3.458-1.207,6.724-3.078,10.028-5.108c1.453-0.894,3.757-2.094,4.809-3.719c2.695,11.533,3.535,23.225,3.99,35.046
		c-0.647,0.059-1.287,0.142-1.915,0.268c-0.279-0.096-0.599-0.14-0.964-0.113c-11.142,0.815-20.895,8.636-28.693,16.028
		c-6.969,6.605-13.224,14.726-14.635,24.224c-0.558,0.584-1.106,1.176-1.641,1.78c-0.521-0.365-1.221-0.401-1.758,0.241
		c-2.951,3.528-6.021,6.874-9.498,9.883c-1.088-0.049-2.2,1.236-1.419,2.248c0.831,1.076,1.771,1.97,2.786,2.708
		c0.249,0.376,0.628,0.635,1.053,0.692c1.552,0.914,3.262,1.457,5.044,1.71c-0.512,0.439-1.021,0.885-1.527,1.336
		c-2.635,2.344-5.678,3.737-8.669,5.522c-0.908,0.541-1.051,2.084-0.008,2.59c6.837,3.317,14.813,9.455,22.506,4.999
		c0.422-0.244,0.647-0.591,0.724-0.958c0.198-0.087,0.372-0.198,0.499-0.35c0.083-0.024,0.252-0.062,0.329-0.101
		c0.025,0.032,0.049,0.064,0.074,0.097c-0.015,0.566-0.005,1.133,0.036,1.693c-0.221,1.312-0.605,2.568-1.059,3.805
		c-0.649,1.027-1.315,2.048-1.939,3.095c-0.287,0.48-0.237,1.015-0.002,1.446c-1.36,0.668-0.544,3.085,1.195,2.757
		c1.632-0.308,3.238-0.723,4.834-1.182c0.302,0.188,0.694,0.273,1.166,0.182c4.731-0.918,9.334-1.736,13.682-3.831
		c0.613,0.226,1.229,0.441,1.851,0.638c2.64,0.834,5.33,1.32,8.042,1.549c4.209,0.855,8.437,1.187,12.43,0.771
		C504.609,360.506,503.883,362.434,503.126,364.351z M522.122,348.069c-2.966,0.33-6.736,0.711-9.605,1.987
		c-4.776,0.126-9.548,0.389-14.326,0.114c-6.227-0.358-12.149-3.036-17.595-5.897c-8.9-4.677-17.83-12.408-19.231-22.921
		c-1.371-10.283,5.651-18.999,12.403-25.818c3.092-3.123,6.766-6.503,10.802-9.313c2.592-1.288,5.239-2.432,7.87-3.438
		c0.662-0.253,1.33-0.49,1.997-0.729c0.284,0.014,0.576-0.081,0.843-0.305c0.895-0.311,1.792-0.61,2.692-0.899
		c0.372,0.335,0.846,0.581,1.445,0.649c9.518,1.089,19.399-2.063,28.378-5.269c0.462,0.949,1.309,1.626,2.369,2.11
		c0.118,0.629,0.589,1.173,1.419,1.158c1.078-0.019,2.154-0.063,3.229-0.105c0.706,0.062,1.416,0.096,2.106,0.112
		c-3.013,4.753-6.063,9.436-7.911,14.828c-0.752,2.191,1.857,3.788,3.672,2.823c0.73-0.388,1.447-0.729,2.162-1.022
		c1.877-0.05,3.737-0.09,5.588,0.098c-2.405,6.417-7.54,11.616-11.67,17.005c-1.107,1.444,0.378,3.958,2.158,3.762
		c4.477-0.493,8.889-1.445,13.369-1.836c-1.317,9.832-11.685,18.096-11.639,27.902C529.49,345.32,525.829,347.657,522.122,348.069z
		 M731.112,104.543c-8.002,9.583-14.27,20.442-21.961,30.254c-13.965,17.813-39.912,20.456-54.261,37.271
		c-4.536,0.965-9.303,1.062-11.179-2.325c-0.711-1.284-2.37-0.722-2.722,0.362c-1.076-0.008-2.077,1.496-1.143,2.622
		c0.935,1.127,2.057,1.989,3.299,2.658c1.506,1.835,3.45,3.213,5.594,4.211c-0.277,0.321-0.417,0.765-0.27,1.302
		c0.987,3.606,1.476,7.306,2,11c0.05,0.348,0.187,0.603,0.375,0.779c-1.084,3.887-2.618,7.721-3.674,10.925
		c-2.625,7.965-5.425,15.874-8.066,23.833c-7.368,22.194-23.146,41.199-38.372,58.48c-7.746,8.792-16.044,16.902-25.031,24.423
		c-9.141,7.649-19.154,14.043-28.52,21.367c-2.844,2.224-5.621,4.532-8.449,6.772c0.402-0.984,0.895-1.966,1.422-2.932
		c2.284-2.255,3.729-5.173,5.067-8.17c1.532-3.434,3.777-6.954,4.768-10.576c0.372-1.36,0.112-2.347-0.565-3.059
		c0.01-0.412,0.011-0.826-0.008-1.242c-0.06-1.33-1.092-2.54-2.5-2.5c-3.441,0.099-6.812,0.643-10.188,1.177
		c2.488-3.085,4.946-6.227,6.796-9.666c1.16-1.669,2.156-3.448,2.839-5.445c0.162-0.474,0.023-0.931-0.261-1.283
		c0.082-0.369,0.16-0.74,0.225-1.117c0.228-1.319-0.33-2.718-1.746-3.076c-2.998-0.759-5.789-0.695-8.512-0.047
		c0.78-1.499,1.64-2.956,2.531-4.397c2.012-2.437,4.195-4.727,6.711-6.75c0.861-0.692,0.384-2.301-0.662-2.507
		c-0.256-0.051-0.511-0.083-0.766-0.125c-0.139-1.195-1.144-2.249-2.467-2.263c-1.417-0.015-2.828-0.073-4.243-0.156
		c-0.809-0.054-1.616-0.125-2.422-0.213c-0.326-0.032-0.62-0.095-0.881-0.162c6.317-2.444,12.499-5.214,18.571-8.221
		c8.031-3.977,15.878-8.481,22.8-14.208c4.788-3.96,10.063-9.836,9.175-16.54c-0.021-0.161-0.068-0.303-0.112-0.447
		c0.071-0.174,0.112-0.361,0.112-0.553c0-0.796-0.62-1.407-1.385-1.485c-0.276-0.314-0.674-0.52-1.115-0.515
		c-0.578,0.007-1.168,0.073-1.599,0.504c-0.011,0.012-0.017,0.023-0.028,0.035c-0.749-0.001-1.518,0.479-1.555,1.443
		c-0.183,4.683-2.198,8.671-4.904,12.252c-1.734,1.593-3.605,2.998-5.218,4.193c-6.407,4.747-13.566,8.504-20.712,11.996
		c-2.742,1.34-5.516,2.597-8.31,3.806c-4.137,1.536-8.366,2.895-12.697,4.098c-0.901,0.25-1.804,0.494-2.707,0.733
		c-0.587-9.929-1.794-19.773-3.64-29.484c0.4-0.11,0.792-0.363,1.137-0.809c0.452-0.583,0.903-1.155,1.317-1.765
		c0.324-0.479,0.387-1.094,0.284-1.671c1.793-2.632,2.871-5.734,4.601-8.358c1.977,2.594,4.936,3.502,8.618,1.265
		c0.6-0.364,1.158-0.773,1.694-1.207c-0.194,0.286-0.391,0.573-0.592,0.86c-0.628,0.896,0.006,1.829,0.857,2.128
		c-0.413,1.846,1.382,3.237,3.116,2.892c19.092-3.815,42.104-22.517,37.246-44.076c-0.037-0.165-0.092-0.312-0.15-0.452
		c2.613-0.598,5.217-1.235,7.795-1.967c0.143,0.036,0.287,0.07,0.445,0.084c2.097,0.187,4.446,2.293,6.131,3.406
		c2.382,1.576,4.732,3.099,7.389,4.171c3.036,1.225,5.158,0.133,6.349-1.901c1.828,1.273,3.931,1.893,5.974,0.33
		c3.541-2.709,3.572-5.913,8.896-3.348c1.076,0.519,2.289,0.346,3.051-0.431c0.47-0.105,0.869-0.419,0.976-1.014
		c0.604-3.395,0.818-7.05,0.354-10.56c-0.174-5.583-1.241-11.298-3.173-16.053c-0.047-0.116-0.104-0.22-0.169-0.314
		c0.514-0.454,1.038-0.875,1.587-1.222c0.672,0.392,1.517,0.506,2.397,0.093c0.106-0.044,0.201-0.109,0.306-0.158
		c0.293,0,0.577,0.011,0.864,0.017c0.324,0.386,0.83,0.609,1.467,0.429c0.03-0.008,0.059-0.011,0.088-0.019
		c0.935,0.398,1.855,0.839,2.757,1.368c0.107,0.063,0.214,0.106,0.321,0.14c0.15,0.693,0.646,0.999,1.186,1.029
		c0.168,0.267,0.321,0.535,0.455,0.792c0.146,0.283,0.342,0.472,0.557,0.593c0.282,0.39,0.756,0.65,1.238,0.65
		c0.694,0,1.216-0.457,1.413-1.065c0.624-0.183,1.065-0.76,1.087-1.435c0.001-0.026,0.004-0.059,0.006-0.087
		c0.006-0.035,0.011-0.07,0.017-0.105c0.045-0.288,0.095-0.578,0.103-0.87c0.02-0.745-0.466-1.492-1.172-1.705
		c-3.55-5.302-8.402-8.395-14.162-4.777c-3.646,1.81-6.346,5.685-8.705,8.767c-1.757,2.296-3.377,4.693-5.266,6.886
		c-2.739,3.182-7.293,5.236-11.032,6.971c-3.783,1.755-7.722,3.199-11.755,4.426c-0.351,0.028-0.652,0.127-0.907,0.279
		c-13.676,4.03-28.431,5.494-42.259,7.003c-5.065,0.553-10.116,1.094-15.163,1.566c-2.952-0.048-5.899-0.121-8.831-0.213
		c-4.792-0.149-9.59-0.324-14.387-0.537c-0.256-0.575-0.5-1.155-0.762-1.729c-0.399-0.879-1.737-0.955-2.355-0.304
		c-0.64,0.491-1.279,0.983-1.918,1.475c-0.229,0.058-0.414,0.162-0.568,0.292c-8.596-0.442-17.185-1.047-25.743-1.899
		c0.099-0.119,0.19-0.242,0.286-0.363c9.873-11.756,10.576-26.656,5.164-40.717c-3.345-8.691-9.355-16.517-17.226-21.343
		c-3.451-2.414-7.353-4.104-11.665-4.736c1.34-1.168,2.702-2.334,4.108-3.511c12.489-10.451,25.314-20.496,38.665-29.825
		c10.836-7.572,22.037-16.002,34.656-20.405c0.661,0.97,1.875,1.486,3.133,0.621c1.67-1.148,2.381-2.088,2.238-4.159
		c-0.11-1.598-1.516-2.873-3.164-2.411c-6.811,1.909-13.198,4.982-19.326,8.59c0.109-0.664,0.081-1.356-0.123-2.042
		c1.408-2.025,3.384-3.603,5.529-4.926c2.201-1.197,4.435-2.132,6.072-2.798c0.922-0.375,3.069-1.219,5.502-1.948
		c2.481-0.267,4.949,0.169,7.852,1.478c0.097,0.043,0.189,0.076,0.284,0.115c0.377,0.833,1.554,1.227,2.363,0.532
		c5.246,0.151,8.288-6.938,12.268-9.795c0.271-0.194,0.45-0.428,0.56-0.673c14.947-4.356,30.942-5.407,46.057-1.333
		c3.031,0.817,6.213,1.706,9.297,2.85c0.196,0.491,0.637,0.872,1.33,0.861c0.278-0.004,0.539-0.013,0.795-0.026
		c3.798,1.6,7.348,3.677,10.148,6.615c1.086,1.14,2.51,2.818,3.883,4.748c2.758,5.49,4.09,11.718,4.158,17.986
		c-0.536,0.453-1.059,0.927-1.545,1.45c-0.127,0.137-0.214,0.282-0.281,0.428c-2.061,2.223-3.638,4.677-4.953,7.542
		c-0.734,1.598,1.007,2.877,2.355,1.817c13.16-10.343,30.916-15.844,47.541-12.614c0.307,0.06,0.582,0.03,0.824-0.057
		c12.25,1.891,24.72,2.379,37.064,3.3c11.689,0.873,25.696,1.17,35.418,8.626C738.416,96.367,734.574,100.397,731.112,104.543z
		 M594.75,185.765c0.805-0.286,1.611-0.566,2.41-0.871c6.154-2.348,12.672-5.564,16.881-10.773c0.257-0.318,0.52-0.673,0.783-1.035
		c0.809-0.85,1.485-1.775,1.905-2.77c0.314-0.471,0.636-0.947,0.963-1.43c0.047,0.053,0.091,0.107,0.148,0.157
		c0.13,0.113,0.244,0.236,0.368,0.353c0.963,5.234,3.197,10.073,2.917,15.305c-1.813-0.7-3.623-0.425-5.233,0.617
		c-0.987,0.254-1.942,0.727-2.837,1.489c-0.792,0.675-1.328,1.312-1.742,1.837c-1.946-1.322-4.134-2.249-6.322-3.29
		c-1.079-0.514-2.147,0.118-2.257,1.295c-0.109,1.165-0.301,2.307-0.458,3.457c-2.703-0.774-5.873-2.113-7.413-4.214
		C594.829,185.844,594.788,185.807,594.75,185.765z"/>
	<path fill="#FFFFFF" d="M358.622,509.576c-0.938,2.145-0.489,4.827,0.163,6.999c0.619,2.058,2.607,4.242,4.427,1.848
		c0.835-1.098-0.248-2.164-1.357-2.142c-0.002-0.005-0.005-0.009-0.007-0.014c-0.243-0.607-0.389-1.254-0.521-1.893
		c-0.187-0.906-0.479-2.452-0.115-3.285C361.978,509.336,359.394,507.807,358.622,509.576z M362.072,516.703
		c-0.014-0.021-0.021-0.046-0.035-0.067C362.14,516.755,362.162,516.839,362.072,516.703z M361.372,516.361
		c-0.277,0.094-0.538,0.27-0.75,0.548C360.901,516.542,361.154,516.396,361.372,516.361z"/>
	<path fill="#FFFFFF" d="M363.083,510.666c-0.231,3.786,1.407,7.36,2.872,10.757c0.764,1.772,3.348,0.243,2.59-1.514
		c-1.255-2.913-2.66-6.002-2.462-9.243C366.202,508.732,363.201,508.744,363.083,510.666z"/>
	<path fill="#FFFFFF" d="M337.956,517.576c-1.149,2.023-1.199,4.156-1.205,6.424c-0.005,1.935,2.995,1.935,3,0
		c0.004-1.714-0.077-3.373,0.795-4.91C341.502,517.405,338.911,515.895,337.956,517.576z"/>
	<path fill="#FFFFFF" d="M288.122,321.243c-1.482,2.093-2.377,5.122-1.651,7.655c0.531,1.857,3.426,1.066,2.893-0.797
		c-0.513-1.794,0.321-3.894,1.349-5.345C291.833,321.174,289.229,319.678,288.122,321.243z"/>
	<path fill="#FFFFFF" d="M292.47,332.898c0.532,1.856,3.427,1.066,2.893-0.797c-0.365-1.272,0.099-2.493,0.5-3.703
		c0.612-1.841-2.286-2.624-2.893-0.797C292.392,329.343,291.95,331.083,292.47,332.898z"/>
	<path fill="#FFFFFF" d="M277.917,518c-1.935,0-1.935,3,0,3S279.851,518,277.917,518z"/>
</g>
</svg>
